<?xml version="1.0" standalone="no"?>
<!DOCTYPE svg PUBLIC "-//W3C//DTD SVG 20010904//EN"
 "http://www.w3.org/TR/2001/REC-SVG-20010904/DTD/svg10.dtd">
<svg version="1.0" xmlns="http://www.w3.org/2000/svg"
 width="1024.000000pt" height="1024.000000pt" viewBox="0 0 1024.000000 1024.000000"
 preserveAspectRatio="xMidYMid meet">
<metadata>
Created by potrace 1.16, written by Peter Selinger 2001-2019
</metadata>
<g transform="translate(0.000000,1024.000000) scale(0.100000,-0.100000)"
fill="#000000" stroke="none">
<path d="M1548 7050 c-186 -23 -354 -113 -432 -233 -107 -163 -105 -398 5
-545 78 -103 172 -152 452 -236 197 -59 244 -78 296 -122 64 -54 79 -134 39
-205 -95 -169 -464 -150 -691 35 l-55 45 -87 -131 c-98 -147 -98 -134 -1 -203
167 -118 340 -169 571 -168 214 1 367 54 481 167 189 189 194 527 10 692 -69
63 -183 115 -381 174 -276 82 -327 106 -360 170 -19 37 -19 113 -1 148 49 94
194 133 372 99 89 -17 219 -65 266 -98 16 -12 31 -20 33 -18 3 4 102 185 128
236 l17 31 -50 32 c-154 99 -415 154 -612 130z"/>
<path d="M3070 7021 c0 -10 -105 -275 -475 -1206 -103 -258 -190 -478 -192
-487 -5 -17 8 -18 174 -18 l179 0 71 183 71 182 367 0 367 0 24 -65 c13 -36
45 -118 70 -182 l46 -118 185 0 c172 0 185 1 178 18 -3 9 -111 278 -240 597
-128 319 -280 697 -337 840 l-104 260 -192 3 c-119 1 -192 -1 -192 -7z m323
-728 l124 -323 -254 0 -253 0 13 33 c7 17 64 164 127 325 62 160 114 291 116
290 1 -2 58 -148 127 -325z"/>
<path d="M4390 6170 l0 -860 585 0 585 0 0 156 0 155 -410 -3 -410 -3 0 708 0
707 -175 0 -175 0 0 -860z"/>
<path d="M5772 6483 l3 -548 32 -78 c37 -92 94 -190 159 -271 l46 -58 72 70
c39 38 81 73 93 77 43 12 102 -38 103 -88 0 -16 4 -26 9 -23 16 10 69 -15 85
-39 9 -14 16 -33 16 -44 0 -13 9 -21 30 -26 35 -8 80 -58 80 -90 0 -17 7 -24
30 -28 35 -7 63 -37 70 -74 3 -14 17 -35 32 -46 34 -25 76 -15 95 22 17 35 1
59 -116 176 -56 55 -101 103 -101 107 0 24 34 -4 137 -112 91 -95 121 -120
142 -120 50 1 82 49 60 92 -6 13 -61 73 -121 134 -61 61 -106 114 -100 118 8
5 68 -53 224 -217 34 -35 73 -33 101 5 28 38 20 52 -114 194 -63 66 -142 150
-176 187 -84 90 -97 89 -188 -4 -81 -82 -116 -103 -154 -94 -56 14 -93 80 -76
135 4 12 51 68 104 124 l96 101 -90 8 c-115 9 -168 29 -203 75 l-27 35 -3 424
-3 423 -175 0 -175 0 3 -547z"/>
<path d="M6920 6645 c0 -239 -4 -403 -11 -435 -14 -65 -48 -104 -110 -128
l-49 -18 25 -24 c14 -13 25 -31 25 -39 0 -10 -15 2 -38 28 l-37 43 -118 -3
-119 -4 -103 -106 c-58 -59 -107 -118 -111 -134 -9 -38 23 -79 66 -83 29 -3
41 6 120 82 56 56 95 86 109 86 25 0 16 9 246 -238 l170 -183 53 58 c128 141
216 311 231 447 5 39 9 288 9 554 l0 482 -179 0 -179 0 0 -385z m340 -149 c0
-505 -1 -526 -21 -592 -38 -122 -102 -229 -201 -338 l-54 -59 -59 63 c-33 35
-91 98 -130 139 -38 41 -89 95 -112 120 -24 25 -43 48 -43 53 0 15 -62 40 -87
33 -13 -3 -60 -41 -105 -85 -83 -83 -111 -95 -142 -65 -20 21 -29 52 -19 69 4
7 52 60 107 117 l98 103 114 2 114 3 33 -40 c19 -21 39 -39 45 -39 19 0 14 38
-7 59 -21 21 -18 31 10 31 24 0 85 54 107 94 15 27 17 78 20 444 l3 412 165 0
164 0 0 -524z"/>
<path d="M7620 6169 l0 -861 408 5 c370 4 415 6 492 25 119 29 192 56 278 103
161 86 271 199 347 354 54 110 74 188 82 326 21 361 -144 648 -462 804 -186
91 -288 105 -777 105 l-368 0 0 -861z m801 545 c119 -22 239 -82 309 -153 99
-102 140 -217 140 -394 0 -89 -4 -122 -25 -183 -47 -139 -126 -229 -260 -294
-105 -51 -197 -68 -422 -74 l-183 -6 0 560 0 560 179 0 c120 0 206 -5 262 -16z"/>
<path d="M6092 5576 c-66 -68 -74 -94 -46 -134 10 -15 25 -22 47 -22 27 0 44
11 92 60 32 33 57 62 54 64 -3 3 -32 -21 -64 -54 -36 -36 -68 -60 -81 -60 -25
0 -54 29 -54 56 0 21 115 144 135 144 28 0 48 -14 62 -44 l14 -31 -6 30 c-7
36 -30 55 -65 55 -20 0 -43 -17 -88 -64z"/>
<path d="M6208 5473 c-33 -32 -64 -66 -69 -75 -25 -46 33 -108 83 -89 13 5 49
36 81 69 70 74 76 111 20 141 -37 19 -53 13 -115 -46z m130 20 c21 -29 14 -45
-56 -114 -73 -74 -98 -80 -128 -34 -20 31 -10 51 59 118 50 50 63 58 85 52 15
-3 33 -13 40 -22z"/>
<path d="M6368 5409 c-9 -5 -40 -33 -67 -62 -58 -60 -68 -104 -29 -131 39 -27
61 -19 127 48 71 71 81 106 41 138 -25 20 -47 22 -72 7z m74 -23 c20 -29 6
-61 -51 -117 -62 -62 -83 -70 -113 -42 -33 29 -23 64 35 120 28 28 59 53 67
56 19 7 53 -2 62 -17z"/>
<path d="M6483 5302 c-35 -5 -113 -96 -113 -132 0 -55 61 -90 102 -57 38 29
98 110 98 131 0 37 -43 66 -87 58z m67 -32 c17 -31 2 -66 -51 -115 -53 -49
-64 -53 -97 -29 -36 25 -28 62 25 116 37 38 54 48 80 48 22 0 36 -6 43 -20z"/>
<path d="M1145 4766 c-51 -19 -127 -100 -143 -153 -40 -132 12 -264 124 -319
48 -23 63 -26 128 -22 56 4 85 11 120 32 25 15 46 29 46 32 0 3 -9 19 -21 35
l-20 29 -28 -21 c-68 -50 -168 -44 -227 15 -82 82 -64 232 34 289 46 27 131
26 178 -2 l36 -21 19 22 c26 32 20 48 -26 72 -51 26 -163 32 -220 12z"/>
<path d="M1570 4525 l0 -255 145 0 145 0 0 40 0 40 -105 0 -105 0 0 215 0 215
-40 0 -40 0 0 -255z"/>
<path d="M2000 4525 l0 -255 40 0 40 0 0 255 0 255 -40 0 -40 0 0 -255z"/>
<path d="M2250 4525 l0 -255 40 0 40 0 2 175 3 174 139 -174 c130 -164 142
-175 173 -175 l33 0 0 255 0 255 -40 0 -40 0 0 -181 0 -181 -142 181 c-133
170 -143 181 -175 181 l-33 0 0 -255z"/>
<path d="M2870 4525 l0 -255 40 0 40 0 0 255 0 255 -40 0 -40 0 0 -255z"/>
<path d="M3235 4756 c-84 -38 -134 -111 -142 -206 -10 -104 43 -206 130 -253
34 -17 59 -22 127 -22 75 0 91 3 133 28 26 15 47 30 47 33 0 3 -9 19 -21 35
l-21 29 -27 -19 c-109 -78 -264 -15 -278 112 -11 91 21 158 90 194 45 23 129
20 174 -7 38 -22 38 -22 65 24 8 16 6 22 -13 37 -60 45 -185 53 -264 15z"/>
<path d="M3766 4638 c-115 -298 -136 -352 -136 -360 0 -4 18 -8 39 -8 39 0 39
0 63 65 l23 66 104 -3 103 -3 23 -60 c22 -59 22 -60 65 -63 38 -3 42 -1 36 15
-4 10 -48 125 -98 256 l-92 237 -37 0 -37 0 -56 -142z m104 19 c0 -8 15 -53
34 -100 l34 -87 -80 0 c-44 0 -78 4 -76 8 2 4 19 49 38 100 31 84 50 113 50
79z"/>
<path d="M4220 4525 l0 -255 145 0 145 0 0 40 0 40 -105 0 -105 0 0 215 0 215
-40 0 -40 0 0 -255z"/>
<path d="M4955 4766 c-16 -7 -41 -26 -55 -41 -21 -22 -25 -36 -25 -87 0 -54 3
-62 31 -87 17 -16 53 -36 80 -45 102 -36 119 -48 122 -87 7 -84 -110 -107
-186 -36 l-24 22 -23 -30 c-29 -35 -24 -44 48 -80 89 -44 186 -30 240 34 22
27 27 42 27 87 0 47 -4 59 -32 89 -22 23 -56 43 -102 60 -78 28 -106 49 -106
80 0 30 40 65 76 65 16 0 47 -9 69 -20 40 -21 41 -20 65 21 27 47 -129 89
-205 55z"/>
<path d="M5455 4756 c-93 -44 -145 -126 -145 -231 0 -140 94 -241 236 -253
180 -14 311 135 274 311 -33 160 -213 245 -365 173z m211 -76 c91 -57 97 -229
9 -298 -85 -67 -216 -39 -260 55 -33 69 -16 182 35 228 52 47 152 54 216 15z"/>
<path d="M5970 4525 l0 -255 150 0 151 0 -3 40 -2 40 -108 0 -108 0 0 215 0
215 -40 0 -40 0 0 -255z"/>
<path d="M6380 4606 c0 -182 6 -219 46 -273 53 -71 208 -85 282 -26 68 54 77
84 80 291 l4 183 -44 -3 -43 -3 -2 -172 c-1 -144 -4 -177 -19 -202 -44 -75
-170 -68 -208 13 -13 27 -16 67 -16 200 l0 166 -40 0 -40 0 0 -174z"/>
<path d="M6910 4740 l0 -40 80 0 80 0 0 -215 0 -215 40 0 40 0 0 215 0 215 80
0 80 0 0 40 0 40 -200 0 -200 0 0 -40z"/>
<path d="M7440 4525 l0 -255 40 0 40 0 0 255 0 255 -40 0 -40 0 0 -255z"/>
<path d="M7805 4756 c-93 -44 -145 -126 -145 -231 0 -143 109 -255 249 -255
76 0 125 18 178 64 61 54 83 103 83 191 0 82 -21 135 -73 187 -69 69 -198 88
-292 44z m164 -56 c19 -5 50 -24 68 -42 111 -107 37 -309 -114 -311 -94 -1
-158 51 -172 140 -15 99 26 180 104 208 48 17 70 18 114 5z"/>
<path d="M8320 4525 l0 -255 40 0 40 0 2 174 3 174 135 -171 c120 -153 139
-172 168 -175 l32 -3 0 255 0 256 -40 0 -40 0 0 -176 0 -176 -121 154 c-162
206 -154 198 -189 198 l-30 0 0 -255z"/>
<path d="M8985 4766 c-16 -7 -41 -26 -55 -41 -21 -22 -25 -36 -25 -87 0 -54 3
-62 31 -87 17 -16 53 -36 80 -45 102 -36 119 -48 122 -87 7 -84 -110 -107
-186 -36 l-24 22 -23 -30 c-29 -35 -24 -44 48 -80 144 -72 295 16 266 155 -10
48 -65 95 -133 115 -102 30 -135 81 -80 124 33 26 78 27 125 3 35 -18 35 -18
52 4 24 32 22 39 -20 60 -49 23 -139 28 -178 10z"/>
<path d="M1076 3743 c-22 -60 -41 -114 -44 -120 -2 -8 4 -13 16 -13 13 0 24
10 31 30 9 27 14 30 51 30 37 0 42 -3 51 -30 7 -19 18 -30 30 -30 17 0 15 9
-21 110 -21 60 -42 114 -45 120 -16 26 -34 1 -69 -97z m67 15 c2 -13 8 -31 12
-40 6 -15 2 -18 -25 -18 -25 0 -31 3 -26 16 3 9 9 27 12 40 8 30 20 31 27 2z"/>
<path d="M1380 3730 c0 -113 1 -120 20 -120 17 0 20 7 20 50 l0 50 50 0 50 0
0 -50 c0 -43 3 -50 20 -50 19 0 20 7 20 120 0 113 -1 120 -20 120 -17 0 -20
-7 -20 -50 l0 -50 -50 0 -50 0 0 50 c0 43 -3 50 -20 50 -19 0 -20 -7 -20 -120z"/>
<path d="M1630 3730 l0 -120 69 0 c60 0 69 2 74 20 5 18 0 20 -49 20 l-54 0 0
33 c0 32 1 32 40 29 35 -4 40 -2 40 17 0 18 -6 21 -40 21 -38 0 -40 2 -40 30
0 29 1 30 50 30 43 0 50 3 50 20 0 18 -7 20 -70 20 l-70 0 0 -120z"/>
<path d="M1861 3738 c-23 -62 -41 -116 -41 -120 0 -5 9 -8 19 -8 13 0 21 9 26
30 6 28 10 30 50 30 39 0 44 -3 54 -30 10 -29 42 -43 40 -17 -1 34 -77 222
-91 225 -11 2 -26 -27 -57 -110z m72 7 l16 -45 -33 0 -34 0 17 45 c9 25 17 45
17 45 1 0 9 -20 17 -45z"/>
<path d="M2070 3730 l0 -120 65 0 c58 0 65 2 65 20 0 17 -7 20 -50 20 l-50 0
0 100 c0 82 -3 100 -15 100 -12 0 -15 -20 -15 -120z"/>
<path d="M2200 3830 c0 -16 7 -20 35 -20 l35 0 0 -100 c0 -82 3 -100 15 -100
12 0 15 18 15 100 l0 100 39 0 c34 0 38 3 34 20 -5 18 -14 20 -89 20 -77 0
-84 -2 -84 -20z"/>
<path d="M2420 3730 c0 -113 1 -120 20 -120 17 0 20 7 20 50 l0 50 50 0 50 0
0 -50 c0 -43 3 -50 20 -50 19 0 20 7 20 120 0 113 -1 120 -20 120 -17 0 -20
-7 -20 -50 l0 -50 -50 0 -50 0 0 50 c0 43 -3 50 -20 50 -19 0 -20 -7 -20 -120z"/>
<path d="M2718 3834 c-15 -8 -35 -28 -43 -44 -56 -108 50 -219 156 -164 25 12
28 18 19 29 -9 11 -17 12 -30 5 -81 -43 -156 51 -99 124 22 29 75 36 97 14 10
-10 15 -10 22 2 14 22 13 26 -15 38 -35 16 -74 14 -107 -4z"/>
<path d="M2936 3743 c-22 -60 -41 -114 -44 -120 -2 -8 4 -13 16 -13 15 0 22 9
27 30 6 28 9 30 55 30 46 0 49 -2 55 -30 5 -21 12 -30 27 -30 12 0 18 5 16 13
-3 6 -22 60 -44 120 -26 74 -43 107 -54 107 -11 0 -28 -33 -54 -107z m63 25
c25 -67 25 -68 -9 -68 -27 0 -31 3 -25 18 3 9 9 29 12 45 7 33 11 34 22 5z"/>
<path d="M3140 3735 c0 -108 1 -115 20 -115 17 0 20 7 20 40 0 53 18 52 57 -3
16 -24 38 -44 47 -44 21 0 20 6 -9 49 l-25 38 20 20 c12 12 20 33 20 54 0 48
-37 76 -101 76 l-49 0 0 -115z m108 41 c4 -31 -10 -46 -45 -46 -20 0 -23 5
-23 41 0 39 1 40 33 37 27 -3 33 -7 35 -32z"/>
<path d="M3360 3730 l0 -120 70 0 c63 0 70 2 70 20 0 17 -7 20 -50 20 l-50 0
0 36 c0 36 0 36 40 32 33 -3 40 0 40 14 0 14 -8 18 -40 18 -38 0 -40 2 -40 30
0 29 1 30 50 30 43 0 50 3 50 20 0 18 -7 20 -70 20 l-70 0 0 -120z"/>
<path d="M3650 3830 c0 -16 7 -20 35 -20 l35 0 0 -100 c0 -93 1 -100 20 -100
19 0 20 7 20 100 l0 100 35 0 c28 0 35 4 35 20 0 19 -7 20 -90 20 -83 0 -90
-1 -90 -20z"/>
<path d="M3881 3738 c-23 -62 -41 -116 -41 -120 0 -5 9 -8 19 -8 13 0 21 9 26
30 6 28 10 30 50 30 39 0 44 -3 54 -30 7 -20 17 -30 30 -30 12 0 21 1 21 3 0
1 -20 54 -43 117 -27 73 -49 116 -59 118 -12 2 -26 -25 -57 -110z m88 -30 c1
-5 -12 -8 -29 -8 -34 0 -34 -1 -18 53 l12 40 17 -39 c10 -21 18 -42 18 -46z"/>
<path d="M4090 3730 l0 -120 65 0 c58 0 65 2 65 20 0 17 -7 20 -50 20 l-50 0
0 100 c0 82 -3 100 -15 100 -12 0 -15 -20 -15 -120z"/>
<path d="M4270 3730 l0 -120 70 0 c63 0 70 2 70 20 0 18 -7 20 -55 20 l-55 0
0 35 c0 35 0 35 45 35 33 0 45 4 45 15 0 11 -12 15 -45 15 -43 0 -45 1 -45 30
0 30 1 30 55 30 48 0 55 2 55 20 0 18 -7 20 -70 20 l-70 0 0 -120z"/>
<path d="M4470 3729 c0 -109 2 -120 18 -117 14 3 17 15 17 81 0 42 1 77 2 77
1 0 28 -36 59 -80 36 -50 64 -80 76 -80 16 0 18 11 18 120 0 113 -1 120 -20
120 -18 0 -20 -7 -20 -86 l0 -87 -23 34 c-66 97 -100 139 -113 139 -11 0 -14
-24 -14 -121z"/>
<path d="M4710 3830 c0 -16 7 -20 35 -20 l35 0 0 -100 c0 -93 1 -100 20 -100
19 0 20 7 20 100 l0 100 35 0 c28 0 35 4 35 20 0 19 -7 20 -90 20 -83 0 -90
-1 -90 -20z"/>
<path d="M5106 3842 c-3 -5 -21 -51 -40 -103 -19 -52 -37 -102 -41 -111 -5
-14 -2 -18 13 -18 13 0 24 10 31 30 9 27 14 30 53 30 39 0 45 -3 55 -30 6 -16
18 -30 27 -30 21 0 20 6 -9 86 -14 38 -32 88 -41 112 -14 39 -36 54 -48 34z
m43 -129 c1 -8 -11 -13 -29 -13 -34 0 -34 0 -21 32 5 13 12 32 16 43 6 17 9
15 20 -15 8 -19 14 -41 14 -47z"/>
<path d="M5301 3825 c-40 -34 -56 -84 -41 -130 24 -72 96 -103 161 -69 32 16
34 41 3 36 -74 -13 -81 -13 -102 5 -13 10 -25 34 -28 55 -5 30 -2 41 19 62 28
28 74 35 95 14 10 -10 15 -10 22 2 15 23 12 30 -16 40 -43 17 -81 11 -113 -15z"/>
<path d="M5531 3824 c-56 -47 -59 -134 -7 -183 28 -26 94 -38 124 -22 14 7 23
8 27 1 3 -5 16 -10 27 -10 19 0 20 1 5 18 -13 15 -14 20 -2 42 31 56 9 137
-45 165 -45 23 -94 19 -129 -11z m126 -36 c16 -15 23 -33 23 -59 0 -43 -12
-56 -30 -34 -10 12 -16 13 -27 4 -11 -10 -11 -15 3 -30 16 -18 16 -19 -15 -19
-44 0 -66 14 -81 50 -14 34 0 83 29 100 28 16 74 11 98 -12z"/>
<path d="M5772 3754 c3 -91 5 -97 31 -120 39 -33 81 -31 118 5 28 28 29 33 29
120 0 84 -1 91 -20 91 -18 0 -20 -7 -20 -88 0 -96 -7 -112 -52 -112 -38 0 -48
24 -48 119 0 76 -1 81 -21 81 -20 0 -21 -4 -17 -96z"/>
<path d="M6020 3730 c0 -108 2 -120 18 -120 15 0 17 12 17 120 0 108 -2 120
-17 120 -16 0 -18 -12 -18 -120z"/>
<path d="M6135 3825 c-14 -13 -25 -30 -25 -37 0 -24 31 -58 68 -76 46 -22 51
-55 9 -60 -16 -2 -35 2 -43 9 -12 10 -17 10 -27 0 -9 -10 -7 -17 12 -32 32
-26 77 -24 106 6 43 42 28 86 -41 116 -33 14 -45 24 -42 36 3 14 13 18 47 18
51 0 63 16 26 33 -39 18 -63 15 -90 -13z"/>
<path d="M6320 3730 c0 -113 1 -120 20 -120 19 0 20 7 20 120 0 113 -1 120
-20 120 -19 0 -20 -7 -20 -120z"/>
<path d="M6400 3830 c0 -16 7 -20 35 -20 l35 0 0 -100 c0 -93 1 -100 20 -100
19 0 20 7 20 100 l0 100 35 0 c28 0 35 4 35 20 0 19 -7 20 -90 20 -83 0 -90
-1 -90 -20z"/>
<path d="M6630 3730 c0 -113 1 -120 20 -120 19 0 20 7 20 120 0 113 -1 120
-20 120 -19 0 -20 -7 -20 -120z"/>
<path d="M6778 3834 c-53 -28 -73 -105 -43 -164 35 -68 135 -79 188 -20 22 25
27 40 27 81 0 45 -4 55 -34 85 -27 27 -42 34 -72 34 -22 -1 -51 -7 -66 -16z
m103 -35 c30 -16 42 -56 28 -96 -19 -59 -91 -74 -128 -27 -42 53 -11 134 50
134 17 0 39 -5 50 -11z"/>
<path d="M7014 3733 c2 -101 4 -118 19 -121 14 -3 17 8 19 78 l3 81 55 -78
c82 -115 90 -112 90 36 0 116 -1 121 -21 121 -19 0 -20 -5 -17 -80 2 -44 1
-80 -2 -80 -3 0 -29 36 -59 80 -79 116 -90 111 -87 -37z"/>
<path d="M7423 3830 c-22 -13 -36 -32 -44 -60 -32 -108 64 -195 161 -145 26
14 28 18 18 35 -11 17 -14 17 -28 5 -41 -38 -120 4 -120 63 0 44 35 82 74 82
17 0 38 -6 44 -12 10 -10 15 -10 22 2 14 22 13 26 -15 38 -38 17 -76 15 -112
-8z"/>
<path d="M7659 3835 c-36 -20 -63 -78 -55 -123 11 -74 103 -123 166 -90 32 17
70 74 70 105 0 39 -30 93 -61 108 -35 19 -86 19 -120 0z m117 -46 c28 -31 25
-96 -5 -120 -32 -27 -77 -24 -106 6 -51 50 -17 135 54 135 26 0 44 -7 57 -21z"/>
<path d="M7890 3735 c0 -108 1 -115 20 -115 18 0 20 7 20 73 l0 72 34 -65 c19
-35 39 -66 44 -68 6 -2 27 26 47 62 20 36 38 66 39 66 1 0 0 -31 -2 -70 -4
-66 -3 -70 17 -70 20 0 21 5 21 115 0 95 -3 115 -15 115 -13 0 -58 -68 -87
-132 -7 -16 -15 -28 -18 -28 -3 1 -22 37 -42 80 -29 62 -42 80 -58 80 -19 0
-20 -6 -20 -115z"/>
<path d="M8200 3735 c0 -108 1 -115 20 -115 17 0 20 7 20 40 0 39 1 40 33 40
51 0 77 24 77 71 0 57 -26 79 -95 79 l-55 0 0 -115z m109 57 c14 -27 -5 -52
-39 -52 -28 0 -30 3 -30 35 0 32 2 35 30 35 18 0 33 -7 39 -18z"/>
<path d="M8455 3838 c-46 -128 -75 -210 -75 -213 0 -3 9 -5 19 -5 12 0 21 9
25 25 6 22 12 25 51 25 39 0 45 -3 51 -25 4 -16 13 -25 25 -25 24 0 25 -4 -20
120 -25 70 -43 106 -54 108 -10 2 -19 -2 -22 -10z m38 -93 l16 -45 -33 0 -34
0 17 45 c9 25 17 45 17 45 1 0 9 -20 17 -45z"/>
<path d="M8620 3735 c0 -108 1 -115 20 -115 18 0 20 7 20 76 l0 76 60 -81 c81
-109 90 -105 90 45 0 107 -1 114 -20 114 -18 0 -20 -7 -20 -82 l0 -81 -57 81
c-83 116 -93 112 -93 -33z"/>
<path d="M8860 3843 c0 -3 15 -29 33 -57 24 -38 33 -65 37 -110 4 -46 9 -60
23 -62 14 -2 17 6 17 52 0 45 6 64 33 107 18 29 37 58 41 65 5 8 0 12 -16 12
-17 0 -30 -12 -49 -46 l-26 -46 -27 46 c-17 30 -34 46 -46 46 -11 0 -20 -3
-20 -7z"/>
</g>
</svg>
